<mxfile host="app.diagrams.net" modified="2023-09-14T00:56:01.548Z" agent="Mozilla/5.0 (Windows NT 10.0; Win64; x64) AppleWebKit/537.36 (KHTML, like Gecko) Chrome/116.0.0.0 Safari/537.36" etag="KlRiTAuhL2aLkMyB6a2F" version="21.7.5" type="device">
  <diagram name="Page-1" id="HWuAZYa7vLfO5rIsiy_T">
    <mxGraphModel dx="2023" dy="1737" grid="1" gridSize="10" guides="1" tooltips="1" connect="1" arrows="1" fold="1" page="1" pageScale="1" pageWidth="850" pageHeight="1100" math="0" shadow="0">
      <root>
        <mxCell id="0" />
        <mxCell id="1" parent="0" />
        <mxCell id="ft1NnIo1mKDG3LehBfM9-3" value="" style="swimlane;childLayout=stackLayout;horizontal=1;startSize=50;horizontalStack=0;rounded=1;fontSize=14;fontStyle=0;strokeWidth=3;resizeParent=0;resizeLast=1;shadow=0;dashed=0;align=center;arcSize=4;whiteSpace=wrap;html=1;" vertex="1" parent="1">
          <mxGeometry x="132" y="-420" width="160" height="120" as="geometry">
            <mxRectangle x="70" y="100" width="80" height="50" as="alternateBounds" />
          </mxGeometry>
        </mxCell>
        <mxCell id="ft1NnIo1mKDG3LehBfM9-15" value="&lt;b&gt;&lt;font style=&quot;font-size: 15px;&quot;&gt;Evaluating&lt;/font&gt;&lt;/b&gt;&lt;span id=&quot;docs-internal-guid-b16e1cdb-7fff-e0be-6e62-8dd086bc350d&quot;&gt;&lt;/span&gt;&lt;span id=&quot;docs-internal-guid-b16e1cdb-7fff-e0be-6e62-8dd086bc350d&quot;&gt;&lt;/span&gt;" style="text;html=1;align=center;verticalAlign=middle;resizable=0;points=[];autosize=1;strokeColor=none;fillColor=none;" vertex="1" parent="ft1NnIo1mKDG3LehBfM9-3">
          <mxGeometry y="50" width="160" height="70" as="geometry" />
        </mxCell>
        <mxCell id="ft1NnIo1mKDG3LehBfM9-16" style="edgeStyle=orthogonalEdgeStyle;rounded=0;orthogonalLoop=1;jettySize=auto;html=1;entryX=0.69;entryY=1.043;entryDx=0;entryDy=0;strokeWidth=3;exitX=0.659;exitY=0.004;exitDx=0;exitDy=0;entryPerimeter=0;exitPerimeter=0;" edge="1" parent="1" source="ft1NnIo1mKDG3LehBfM9-4" target="ft1NnIo1mKDG3LehBfM9-15">
          <mxGeometry relative="1" as="geometry" />
        </mxCell>
        <mxCell id="ft1NnIo1mKDG3LehBfM9-24" style="edgeStyle=orthogonalEdgeStyle;rounded=0;orthogonalLoop=1;jettySize=auto;html=1;exitX=0;exitY=0.25;exitDx=0;exitDy=0;entryX=1.012;entryY=0.339;entryDx=0;entryDy=0;entryPerimeter=0;strokeWidth=3;" edge="1" parent="1" source="ft1NnIo1mKDG3LehBfM9-4" target="ft1NnIo1mKDG3LehBfM9-22">
          <mxGeometry relative="1" as="geometry">
            <mxPoint x="-48" y="-160" as="targetPoint" />
          </mxGeometry>
        </mxCell>
        <mxCell id="ft1NnIo1mKDG3LehBfM9-45" style="edgeStyle=orthogonalEdgeStyle;rounded=0;orthogonalLoop=1;jettySize=auto;html=1;exitX=0.433;exitY=1.005;exitDx=0;exitDy=0;entryX=0.344;entryY=-0.008;entryDx=0;entryDy=0;entryPerimeter=0;strokeWidth=3;exitPerimeter=0;" edge="1" parent="1" source="ft1NnIo1mKDG3LehBfM9-4" target="ft1NnIo1mKDG3LehBfM9-42">
          <mxGeometry relative="1" as="geometry" />
        </mxCell>
        <mxCell id="ft1NnIo1mKDG3LehBfM9-4" value="&lt;b&gt;&lt;font style=&quot;font-size: 15px;&quot;&gt;Student&lt;/font&gt;&lt;/b&gt;" style="rounded=0;whiteSpace=wrap;html=1;strokeWidth=3;" vertex="1" parent="1">
          <mxGeometry x="143" y="-180" width="150" height="80" as="geometry" />
        </mxCell>
        <mxCell id="ft1NnIo1mKDG3LehBfM9-31" style="edgeStyle=orthogonalEdgeStyle;rounded=0;orthogonalLoop=1;jettySize=auto;html=1;exitX=0.5;exitY=1;exitDx=0;exitDy=0;strokeWidth=3;entryX=0;entryY=0.429;entryDx=0;entryDy=0;entryPerimeter=0;" edge="1" parent="1" source="ft1NnIo1mKDG3LehBfM9-35" target="ft1NnIo1mKDG3LehBfM9-30">
          <mxGeometry relative="1" as="geometry">
            <mxPoint x="-308" y="75" as="targetPoint" />
          </mxGeometry>
        </mxCell>
        <mxCell id="ft1NnIo1mKDG3LehBfM9-17" value="&lt;b style=&quot;font-weight:normal;&quot; id=&quot;docs-internal-guid-39375290-7fff-3938-4612-e801096b2502&quot;&gt;&lt;span style=&quot;font-size: 11pt; font-family: Arial, sans-serif; color: rgb(0, 0, 0); background-color: transparent; font-weight: 700; font-style: normal; font-variant: normal; text-decoration: none; vertical-align: baseline;&quot;&gt;Students Grade&lt;/span&gt;&lt;/b&gt;" style="text;whiteSpace=wrap;html=1;" vertex="1" parent="1">
          <mxGeometry x="260" y="-255" width="140" height="29" as="geometry" />
        </mxCell>
        <mxCell id="ft1NnIo1mKDG3LehBfM9-20" style="edgeStyle=orthogonalEdgeStyle;rounded=0;orthogonalLoop=1;jettySize=auto;html=1;entryX=0.25;entryY=0;entryDx=0;entryDy=0;exitX=0.308;exitY=1.025;exitDx=0;exitDy=0;exitPerimeter=0;strokeWidth=3;" edge="1" parent="1" source="ft1NnIo1mKDG3LehBfM9-15" target="ft1NnIo1mKDG3LehBfM9-4">
          <mxGeometry relative="1" as="geometry" />
        </mxCell>
        <mxCell id="ft1NnIo1mKDG3LehBfM9-21" value="&lt;b style=&quot;font-weight:normal;&quot; id=&quot;docs-internal-guid-5a6dc2d1-7fff-d2d0-395e-1e1ae18f7ee9&quot;&gt;&lt;span style=&quot;font-size: 11pt; font-family: Arial, sans-serif; color: rgb(0, 0, 0); background-color: transparent; font-weight: 700; font-style: normal; font-variant: normal; text-decoration: none; vertical-align: baseline;&quot;&gt;Subjects Available&lt;/span&gt;&lt;/b&gt;" style="text;whiteSpace=wrap;html=1;" vertex="1" parent="1">
          <mxGeometry x="37" y="-253" width="160" height="40" as="geometry" />
        </mxCell>
        <mxCell id="ft1NnIo1mKDG3LehBfM9-26" style="edgeStyle=orthogonalEdgeStyle;rounded=0;orthogonalLoop=1;jettySize=auto;html=1;exitX=-0.005;exitY=0.356;exitDx=0;exitDy=0;exitPerimeter=0;entryX=0.5;entryY=0;entryDx=0;entryDy=0;strokeWidth=3;" edge="1" parent="1" source="ft1NnIo1mKDG3LehBfM9-22" target="ft1NnIo1mKDG3LehBfM9-35">
          <mxGeometry relative="1" as="geometry">
            <mxPoint x="-408" y="-160" as="targetPoint" />
          </mxGeometry>
        </mxCell>
        <mxCell id="ft1NnIo1mKDG3LehBfM9-22" value="" style="swimlane;childLayout=stackLayout;horizontal=1;startSize=50;horizontalStack=0;rounded=1;fontSize=14;fontStyle=0;strokeWidth=3;resizeParent=0;resizeLast=1;shadow=0;dashed=0;align=center;arcSize=4;whiteSpace=wrap;html=1;" vertex="1" parent="1">
          <mxGeometry x="-218" y="-201" width="160" height="120" as="geometry">
            <mxRectangle x="70" y="100" width="80" height="50" as="alternateBounds" />
          </mxGeometry>
        </mxCell>
        <mxCell id="ft1NnIo1mKDG3LehBfM9-23" value="&lt;b style=&quot;&quot;&gt;&lt;font style=&quot;font-size: 15px;&quot;&gt;Check Balance&lt;/font&gt;&lt;/b&gt;" style="text;html=1;align=center;verticalAlign=middle;resizable=0;points=[];autosize=1;strokeColor=none;fillColor=none;" vertex="1" parent="ft1NnIo1mKDG3LehBfM9-22">
          <mxGeometry y="50" width="160" height="70" as="geometry" />
        </mxCell>
        <mxCell id="ft1NnIo1mKDG3LehBfM9-29" value="" style="swimlane;childLayout=stackLayout;horizontal=1;startSize=50;horizontalStack=0;rounded=1;fontSize=14;fontStyle=0;strokeWidth=3;resizeParent=0;resizeLast=1;shadow=0;dashed=0;align=center;arcSize=4;whiteSpace=wrap;html=1;" vertex="1" parent="1">
          <mxGeometry x="-218" y="-10" width="180" height="120" as="geometry">
            <mxRectangle x="70" y="100" width="80" height="50" as="alternateBounds" />
          </mxGeometry>
        </mxCell>
        <mxCell id="ft1NnIo1mKDG3LehBfM9-30" value="&lt;span style=&quot;font-size: 15px;&quot;&gt;&lt;b&gt;Produce Reports&lt;/b&gt;&lt;/span&gt;" style="text;html=1;align=center;verticalAlign=middle;resizable=0;points=[];autosize=1;strokeColor=none;fillColor=none;" vertex="1" parent="ft1NnIo1mKDG3LehBfM9-29">
          <mxGeometry y="50" width="180" height="70" as="geometry" />
        </mxCell>
        <mxCell id="ft1NnIo1mKDG3LehBfM9-32" style="edgeStyle=orthogonalEdgeStyle;rounded=0;orthogonalLoop=1;jettySize=auto;html=1;entryX=0.25;entryY=1;entryDx=0;entryDy=0;strokeWidth=3;" edge="1" parent="1" source="ft1NnIo1mKDG3LehBfM9-30" target="ft1NnIo1mKDG3LehBfM9-4">
          <mxGeometry relative="1" as="geometry" />
        </mxCell>
        <mxCell id="ft1NnIo1mKDG3LehBfM9-33" value="&lt;b style=&quot;font-weight:normal;&quot; id=&quot;docs-internal-guid-5a6dc2d1-7fff-d2d0-395e-1e1ae18f7ee9&quot;&gt;&lt;span style=&quot;font-size: 11pt; font-family: Arial, sans-serif; color: rgb(0, 0, 0); background-color: transparent; font-weight: 700; font-style: normal; font-variant: normal; text-decoration: none; vertical-align: baseline;&quot;&gt;Request Balance&lt;/span&gt;&lt;/b&gt;" style="text;whiteSpace=wrap;html=1;" vertex="1" parent="1">
          <mxGeometry x="-14" y="-152" width="160" height="40" as="geometry" />
        </mxCell>
        <mxCell id="ft1NnIo1mKDG3LehBfM9-34" value="" style="group;strokeWidth=3;" vertex="1" connectable="0" parent="1">
          <mxGeometry x="-458" y="-70" width="180" height="60" as="geometry" />
        </mxCell>
        <mxCell id="ft1NnIo1mKDG3LehBfM9-35" value="&lt;font size=&quot;1&quot; style=&quot;&quot;&gt;&lt;b style=&quot;font-size: 16px;&quot;&gt;&amp;nbsp; &amp;nbsp; &amp;nbsp; &amp;nbsp; &amp;nbsp; &amp;nbsp; &amp;nbsp; Pending Request&lt;/b&gt;&lt;/font&gt;" style="shape=partialRectangle;whiteSpace=wrap;html=1;left=0;right=0;fillColor=none;strokeWidth=3;" vertex="1" parent="ft1NnIo1mKDG3LehBfM9-34">
          <mxGeometry x="-60" width="240" height="60" as="geometry" />
        </mxCell>
        <mxCell id="ft1NnIo1mKDG3LehBfM9-36" value="" style="endArrow=none;html=1;rounded=0;exitX=0.25;exitY=1;exitDx=0;exitDy=0;entryX=0.25;entryY=0;entryDx=0;entryDy=0;strokeWidth=3;" edge="1" parent="ft1NnIo1mKDG3LehBfM9-34" source="ft1NnIo1mKDG3LehBfM9-35" target="ft1NnIo1mKDG3LehBfM9-35">
          <mxGeometry width="50" height="50" relative="1" as="geometry">
            <mxPoint x="187.49999999999997" y="104.99999999999999" as="sourcePoint" />
            <mxPoint x="262.49999999999994" y="29.999999999999996" as="targetPoint" />
          </mxGeometry>
        </mxCell>
        <mxCell id="ft1NnIo1mKDG3LehBfM9-37" value="" style="endArrow=none;html=1;rounded=0;exitX=0;exitY=1;exitDx=0;exitDy=0;entryX=0;entryY=0;entryDx=0;entryDy=0;strokeWidth=3;" edge="1" parent="ft1NnIo1mKDG3LehBfM9-34" source="ft1NnIo1mKDG3LehBfM9-35" target="ft1NnIo1mKDG3LehBfM9-35">
          <mxGeometry width="50" height="50" relative="1" as="geometry">
            <mxPoint x="59.99999999999999" y="104.99999999999999" as="sourcePoint" />
            <mxPoint x="59.99999999999999" y="14.999999999999998" as="targetPoint" />
          </mxGeometry>
        </mxCell>
        <mxCell id="ft1NnIo1mKDG3LehBfM9-38" value="&lt;font face=&quot;Arial, sans-serif&quot;&gt;&lt;span style=&quot;font-size: 14.6667px;&quot;&gt;&lt;b&gt;Balance Data&lt;/b&gt;&lt;/span&gt;&lt;/font&gt;" style="text;whiteSpace=wrap;html=1;" vertex="1" parent="1">
          <mxGeometry x="-371" y="-152" width="160" height="40" as="geometry" />
        </mxCell>
        <mxCell id="ft1NnIo1mKDG3LehBfM9-39" value="&lt;font face=&quot;Arial, sans-serif&quot;&gt;&lt;span style=&quot;font-size: 14.6667px;&quot;&gt;&lt;b&gt;Ordered Data&lt;/b&gt;&lt;/span&gt;&lt;/font&gt;" style="text;whiteSpace=wrap;html=1;" vertex="1" parent="1">
          <mxGeometry x="-371" y="30" width="160" height="40" as="geometry" />
        </mxCell>
        <mxCell id="ft1NnIo1mKDG3LehBfM9-40" value="&lt;font face=&quot;Arial, sans-serif&quot;&gt;&lt;span style=&quot;font-size: 14.6667px;&quot;&gt;&lt;b&gt;Balance Reports&lt;/b&gt;&lt;/span&gt;&lt;/font&gt;" style="text;whiteSpace=wrap;html=1;" vertex="1" parent="1">
          <mxGeometry x="19" y="35" width="160" height="40" as="geometry" />
        </mxCell>
        <mxCell id="ft1NnIo1mKDG3LehBfM9-47" style="edgeStyle=orthogonalEdgeStyle;rounded=0;orthogonalLoop=1;jettySize=auto;html=1;exitX=0.576;exitY=-0.011;exitDx=0;exitDy=0;entryX=0.713;entryY=1;entryDx=0;entryDy=0;exitPerimeter=0;strokeWidth=3;entryPerimeter=0;" edge="1" parent="1" source="ft1NnIo1mKDG3LehBfM9-42" target="ft1NnIo1mKDG3LehBfM9-4">
          <mxGeometry relative="1" as="geometry" />
        </mxCell>
        <mxCell id="ft1NnIo1mKDG3LehBfM9-42" value="" style="swimlane;childLayout=stackLayout;horizontal=1;startSize=50;horizontalStack=0;rounded=1;fontSize=14;fontStyle=0;strokeWidth=3;resizeParent=0;resizeLast=1;shadow=0;dashed=0;align=center;arcSize=4;whiteSpace=wrap;html=1;" vertex="1" parent="1">
          <mxGeometry x="146" y="166" width="180" height="120" as="geometry">
            <mxRectangle x="70" y="100" width="80" height="50" as="alternateBounds" />
          </mxGeometry>
        </mxCell>
        <mxCell id="ft1NnIo1mKDG3LehBfM9-43" value="&lt;span style=&quot;font-size: 15px;&quot;&gt;&lt;b&gt;Manage Account&lt;br&gt;Balance&lt;br&gt;&lt;/b&gt;&lt;/span&gt;" style="text;html=1;align=center;verticalAlign=middle;resizable=0;points=[];autosize=1;strokeColor=none;fillColor=none;" vertex="1" parent="ft1NnIo1mKDG3LehBfM9-42">
          <mxGeometry y="50" width="180" height="70" as="geometry" />
        </mxCell>
        <mxCell id="ft1NnIo1mKDG3LehBfM9-46" value="&lt;font face=&quot;Arial, sans-serif&quot;&gt;&lt;span style=&quot;font-size: 14.6667px;&quot;&gt;&lt;b&gt;Payment&lt;/b&gt;&lt;/span&gt;&lt;/font&gt;" style="text;whiteSpace=wrap;html=1;" vertex="1" parent="1">
          <mxGeometry x="126" y="101" width="160" height="40" as="geometry" />
        </mxCell>
        <mxCell id="ft1NnIo1mKDG3LehBfM9-49" value="&lt;font size=&quot;1&quot; face=&quot;Arial, sans-serif&quot;&gt;&lt;b style=&quot;font-size: 15px;&quot;&gt;Receipt&lt;/b&gt;&lt;/font&gt;" style="text;whiteSpace=wrap;html=1;" vertex="1" parent="1">
          <mxGeometry x="264" y="70" width="160" height="40" as="geometry" />
        </mxCell>
        <mxCell id="ft1NnIo1mKDG3LehBfM9-50" value="&lt;b&gt;&lt;font style=&quot;font-size: 15px;&quot;&gt;Accounting Office&lt;/font&gt;&lt;/b&gt;" style="rounded=0;whiteSpace=wrap;html=1;strokeWidth=3;" vertex="1" parent="1">
          <mxGeometry x="-400" y="360" width="150" height="80" as="geometry" />
        </mxCell>
        <mxCell id="ft1NnIo1mKDG3LehBfM9-51" value="" style="group;strokeWidth=3;" vertex="1" connectable="0" parent="1">
          <mxGeometry x="-120" y="240" width="180" height="80" as="geometry" />
        </mxCell>
        <mxCell id="ft1NnIo1mKDG3LehBfM9-52" value="&lt;span style=&quot;font-size: 16px;&quot;&gt;&lt;b&gt;&lt;span style=&quot;white-space: pre;&quot;&gt;&#x9;&lt;/span&gt;&amp;nbsp; &amp;nbsp; Students Account&lt;br&gt;&amp;nbsp;&lt;span style=&quot;white-space: pre;&quot;&gt;&#x9;&lt;/span&gt;Data&lt;br&gt;&lt;/b&gt;&lt;/span&gt;" style="shape=partialRectangle;whiteSpace=wrap;html=1;left=0;right=0;fillColor=none;strokeWidth=3;" vertex="1" parent="ft1NnIo1mKDG3LehBfM9-51">
          <mxGeometry x="-60" width="240" height="80" as="geometry" />
        </mxCell>
        <mxCell id="ft1NnIo1mKDG3LehBfM9-53" value="" style="endArrow=none;html=1;rounded=0;exitX=0.25;exitY=1;exitDx=0;exitDy=0;entryX=0.25;entryY=0;entryDx=0;entryDy=0;strokeWidth=3;" edge="1" parent="ft1NnIo1mKDG3LehBfM9-51" source="ft1NnIo1mKDG3LehBfM9-52" target="ft1NnIo1mKDG3LehBfM9-52">
          <mxGeometry width="50" height="50" relative="1" as="geometry">
            <mxPoint x="187.49999999999997" y="104.99999999999999" as="sourcePoint" />
            <mxPoint x="262.49999999999994" y="29.999999999999996" as="targetPoint" />
          </mxGeometry>
        </mxCell>
        <mxCell id="ft1NnIo1mKDG3LehBfM9-54" value="" style="endArrow=none;html=1;rounded=0;exitX=0;exitY=1;exitDx=0;exitDy=0;entryX=0;entryY=0;entryDx=0;entryDy=0;strokeWidth=3;" edge="1" parent="ft1NnIo1mKDG3LehBfM9-51" source="ft1NnIo1mKDG3LehBfM9-52" target="ft1NnIo1mKDG3LehBfM9-52">
          <mxGeometry width="50" height="50" relative="1" as="geometry">
            <mxPoint x="59.99999999999999" y="104.99999999999999" as="sourcePoint" />
            <mxPoint x="59.99999999999999" y="14.999999999999998" as="targetPoint" />
          </mxGeometry>
        </mxCell>
      </root>
    </mxGraphModel>
  </diagram>
</mxfile>
